<?xml version="1.0" encoding="UTF-8"?>
<svg id="Layer_1" xmlns="http://www.w3.org/2000/svg" xmlns:xlink="http://www.w3.org/1999/xlink" viewBox="0 0 700 82.1835">
  <defs>
    <style>
      .cls-1 {
        fill: url(#linear-gradient-8);
      }

      .cls-2 {
        fill: url(#linear-gradient-7);
      }

      .cls-3 {
        fill: url(#linear-gradient-5);
      }

      .cls-4 {
        fill: url(#linear-gradient-6);
      }

      .cls-5 {
        fill: url(#linear-gradient-9);
      }

      .cls-6 {
        fill: url(#linear-gradient-4);
      }

      .cls-7 {
        fill: url(#linear-gradient-3);
      }

      .cls-8 {
        fill: url(#linear-gradient-2);
      }

      .cls-9 {
        fill: url(#linear-gradient);
      }

      .cls-10 {
        fill: url(#linear-gradient-10);
      }

      .cls-11 {
        fill: url(#linear-gradient-11);
      }

      .cls-12 {
        fill: url(#linear-gradient-12);
      }

      .cls-13 {
        fill: url(#linear-gradient-13);
      }

      .cls-14 {
        fill: url(#linear-gradient-14);
      }

      .cls-15 {
        fill: url(#linear-gradient-15);
      }

      .cls-16 {
        fill: url(#linear-gradient-16);
      }
    </style>
    <linearGradient id="linear-gradient" x1="27.9068" y1="0" x2="27.9068" y2="70.1085" gradientUnits="userSpaceOnUse">
      <stop offset="0" stop-color="#325fec"/>
      <stop offset="1" stop-color="#518fff"/>
    </linearGradient>
    <linearGradient id="linear-gradient-2" x1="91.4253" y1="0" x2="91.4253" y2="70.1085" xlink:href="#linear-gradient"/>
    <linearGradient id="linear-gradient-3" x1="156.2702" y1="-20.136" x2="156.2702" y2="90.1622" xlink:href="#linear-gradient"/>
    <linearGradient id="linear-gradient-4" x1="197.8047" y1="-20.136" x2="197.8047" y2="90.1622" xlink:href="#linear-gradient"/>
    <linearGradient id="linear-gradient-5" x1="230.1092" y1="-20.136" x2="230.1092" y2="90.1622" xlink:href="#linear-gradient"/>
    <linearGradient id="linear-gradient-6" x1="248.9116" y1="-20.136" x2="248.9116" y2="90.1622" xlink:href="#linear-gradient"/>
    <linearGradient id="linear-gradient-7" x1="281.2172" y1="-20.136" x2="281.2172" y2="90.1622" xlink:href="#linear-gradient"/>
    <linearGradient id="linear-gradient-8" x1="334.8114" y1="-20.136" x2="334.8114" y2="90.1622" xlink:href="#linear-gradient"/>
    <linearGradient id="linear-gradient-9" x1="410.1889" y1="-20.136" x2="410.1889" y2="90.1622" xlink:href="#linear-gradient"/>
    <linearGradient id="linear-gradient-10" x1="449.8621" y1="-20.136" x2="449.8621" y2="90.1622" xlink:href="#linear-gradient"/>
    <linearGradient id="linear-gradient-11" x1="483.8573" y1="-20.136" x2="483.8573" y2="90.1622" xlink:href="#linear-gradient"/>
    <linearGradient id="linear-gradient-12" x1="531.203" y1="-20.136" x2="531.203" y2="90.1622" xlink:href="#linear-gradient"/>
    <linearGradient id="linear-gradient-13" x1="576.0429" y1="-20.136" x2="576.0429" y2="90.1622" xlink:href="#linear-gradient"/>
    <linearGradient id="linear-gradient-14" x1="614.71" y1="-20.136" x2="614.71" y2="90.1622" xlink:href="#linear-gradient"/>
    <linearGradient id="linear-gradient-15" x1="641.5454" y1="-20.136" x2="641.5454" y2="90.1622" xlink:href="#linear-gradient"/>
    <linearGradient id="linear-gradient-16" x1="678.5974" y1="-20.136" x2="678.5974" y2="90.1622" xlink:href="#linear-gradient"/>
  </defs>
  <g>
    <polygon class="cls-9" points="49.0587 27.034 6.6296 37.6412 49.0587 48.2485 55.8136 75.2825 0 44.2708 0 31.0117 55.8136 0 49.0587 27.034"/>
    <polygon class="cls-8" points="119.3321 31.0117 119.3321 44.2708 63.5186 75.2825 70.2734 48.2485 112.7025 37.6412 70.2734 27.034 63.5186 0 119.3321 31.0117"/>
  </g>
  <g>
    <polygon class="cls-7" points="138.1527 66.0033 148.2947 66.0033 148.2947 43.3665 171.8436 43.3665 171.8436 34.9341 148.2947 34.9341 148.2947 17.956 174.3877 17.956 174.3877 9.4103 138.1527 9.4103 138.1527 66.0033"/>
    <path class="cls-6" d="M208.5725,25.7422c-3.0387-1.8232-6.6342-2.7342-10.7865-2.7342-4.1285,0-7.7104.911-10.7491,2.7342s-5.3881,4.3877-7.0461,7.6912c-1.658,3.3046-2.4875,7.1604-2.4875,11.5662,0,4.3549.8296,8.1722,2.4875,11.4508,1.658,3.2797,4.0074,5.8374,7.0461,7.6731s6.6206,2.7535,10.7491,2.7535c4.1523,0,7.7478-.9178,10.7865-2.7535s5.387-4.3933,7.045-7.6731c1.6591-3.2786,2.4887-7.0959,2.4887-11.4508,0-4.4058-.8296-8.2616-2.4887-11.5662-1.658-3.3035-4.0063-5.868-7.045-7.6912ZM206.9587,51.988c-.7481,2.1016-1.8877,3.7732-3.4189,5.0135-1.5324,1.2415-3.4506,1.8617-5.7537,1.8617-2.3053,0-4.21-.6202-5.7163-1.8617-1.5075-1.2404-2.6347-2.9119-3.3805-5.0135-.7481-2.1016-1.1204-4.4443-1.1204-7.0269,0-2.6335.3723-4.9943,1.1204-7.0835.7458-2.0892,1.873-3.7539,3.3805-4.9943,1.5063-1.2404,3.411-1.8617,5.7163-1.8617,2.3031,0,4.2213.6213,5.7537,1.8617,1.5312,1.2404,2.6709,2.9119,3.4189,5.0135.7458,2.1016,1.1204,4.4567,1.1204,7.0642,0,2.5826-.3746,4.9253-1.1204,7.0269Z"/>
    <rect class="cls-3" x="225.1715" y="9.4103" width="9.8754" height="56.5929"/>
    <rect class="cls-4" x="243.9739" y="9.4103" width="9.8754" height="56.5929"/>
    <path class="cls-2" d="M291.985,25.7422c-3.0387-1.8232-6.6342-2.7342-10.7865-2.7342-4.1285,0-7.7104.911-10.7491,2.7342s-5.3881,4.3877-7.0461,7.6912c-1.658,3.3046-2.4875,7.1604-2.4875,11.5662,0,4.3549.8296,8.1722,2.4875,11.4508,1.658,3.2797,4.0074,5.8374,7.0461,7.6731s6.6206,2.7535,10.7491,2.7535c4.1523,0,7.7478-.9178,10.7865-2.7535s5.387-4.3933,7.045-7.6731c1.6591-3.2786,2.4887-7.0959,2.4887-11.4508,0-4.4058-.8296-8.2616-2.4887-11.5662-1.658-3.3035-4.0063-5.868-7.045-7.6912ZM290.3712,51.988c-.7481,2.1016-1.8877,3.7732-3.4189,5.0135-1.5324,1.2415-3.4506,1.8617-5.7537,1.8617-2.3053,0-4.21-.6202-5.7163-1.8617-1.5075-1.2404-2.6347-2.9119-3.3805-5.0135-.7481-2.1016-1.1204-4.4443-1.1204-7.0269,0-2.6335.3723-4.9943,1.1204-7.0835.7458-2.0892,1.873-3.7539,3.3805-4.9943,1.5063-1.2404,3.411-1.8617,5.7163-1.8617,2.3031,0,4.2213.6213,5.7537,1.8617,1.5312,1.2404,2.6709,2.9119,3.4189,5.0135.7458,2.1016,1.1204,4.4567,1.1204,7.0642,0,2.5826-.3746,4.9253-1.1204,7.0269Z"/>
    <path class="cls-1" d="M351.1238,40.1751c-.6836,2.8112-1.3864,5.8499-2.1073,9.116-.5074,2.295-1.0046,4.7626-1.493,7.3827-.5127-2.643-1.0404-5.1285-1.5842-7.4392-.773-3.2786-1.5007-6.2992-2.1842-9.0594l-4.1772-16.6352h-9.4205l-4.2915,16.6352c-.7096,2.8112-1.4565,5.8567-2.2408,9.1353-.5479,2.2878-1.0689,4.7357-1.5672,7.3245-.4974-2.6642-1.0125-5.1573-1.5473-7.4581-.7594-3.2662-1.4565-6.2664-2.0892-9.0017l-4.1783-16.6352h-10.4056l12.6476,42.4634h9.9886l4.9762-17.3199c.5059-1.6965.9925-3.557,1.4622-5.5828.4674-2.0258.9359-4.0833,1.4045-6.1724.1578-.7038.314-1.3847.4704-2.0696.1536.685.3073,1.3658.461,2.0696.455,2.0892.9235,4.1342,1.4045,6.1339.481,2.0009.9744,3.8739,1.4814,5.6213l4.9762,17.3199h9.9886l12.6866-42.4634h-10.4831l-4.1783,16.6352Z"/>
    <path class="cls-5" d="M421.7354,11.8413c-2.9629-1.6206-6.6081-2.4309-10.9381-2.4309h-21.1564v56.5929h10.1414v-19.1431h10.8623c4.3549,0,8.0273-.8103,11.0151-2.4309,2.9877-1.6195,5.2478-3.8354,6.7802-6.6466,1.5312-2.8101,2.2974-6.0264,2.2974-9.6468,0-3.5955-.7594-6.8051-2.2782-9.6287-1.5199-2.8236-3.7607-5.0452-6.7236-6.6658ZM419.2093,33.4911c-.7718,1.5697-1.9749,2.7976-3.6079,3.6838-1.6331.8873-3.729,1.3298-6.2856,1.3298h-9.5336v-20.586h9.4578c2.5826,0,4.6967.4301,6.3422,1.2913s2.8553,2.0643,3.6272,3.6079c.773,1.5448,1.1589,3.3171,1.1589,5.318,0,1.9998-.3859,3.7856-1.1589,5.3553Z"/>
    <path class="cls-10" d="M458.3126,22.9695c-2.4309,0-4.5948.6655-6.495,1.9941-1.899,1.3298-3.2277,3.2231-3.9871,5.679h-.4561v-7.1027h-9.5721v42.4634h9.8754v-24.9918c0-1.7983.4119-3.3861,1.2347-4.7668.8228-1.3796,1.9624-2.4626,3.4189-3.248,1.4554-.7843,3.0953-1.177,4.9185-1.177.8861,0,1.7847.0509,2.6969.1517.911.1019,1.5697.2162,1.9749.3418v-9.0775c-.4821-.0758-1.0638-.1381-1.7474-.1901-.6836-.0498-1.3049-.0758-1.8617-.0758Z"/>
    <path class="cls-11" d="M494.6251,25.7422c-3.0387-1.8232-6.6342-2.7342-10.7865-2.7342-4.1285,0-7.7104.911-10.7491,2.7342s-5.3881,4.3877-7.0461,7.6912c-1.658,3.3046-2.4875,7.1604-2.4875,11.5662,0,4.3549.8296,8.1722,2.4875,11.4508,1.658,3.2797,4.0074,5.8374,7.0461,7.6731s6.6206,2.7535,10.7491,2.7535c4.1523,0,7.7478-.9178,10.7865-2.7535s5.387-4.3933,7.045-7.6731c1.6591-3.2786,2.4887-7.0959,2.4887-11.4508,0-4.4058-.8296-8.2616-2.4887-11.5662-1.658-3.3035-4.0063-5.868-7.045-7.6912ZM493.0113,51.988c-.7481,2.1016-1.8877,3.7732-3.4189,5.0135-1.5324,1.2415-3.4506,1.8617-5.7537,1.8617-2.3053,0-4.21-.6202-5.7163-1.8617-1.5075-1.2404-2.6347-2.9119-3.3805-5.0135-.7481-2.1016-1.1204-4.4443-1.1204-7.0269,0-2.6335.3723-4.9943,1.1204-7.0835.7458-2.0892,1.873-3.7539,3.3805-4.9943,1.5063-1.2404,3.411-1.8617,5.7163-1.8617,2.3031,0,4.2213.6213,5.7537,1.8617,1.5312,1.2404,2.6709,2.9119,3.4189,5.0135.7458,2.1016,1.1204,4.4567,1.1204,7.0642,0,2.5826-.3746,4.9253-1.1204,7.0269Z"/>
    <path class="cls-12" d="M542.5592,25.5147c-2.6335-1.6716-5.5964-2.5068-8.8874-2.5068-2.5068,0-4.5642.4244-6.1724,1.2721-1.6082.8488-2.8802,1.8549-3.8173,3.0194-.9371,1.1657-1.658,2.2544-2.165,3.2673h-.6451v-7.0269h-9.6479v58.3403h9.8754v-22.5994h.4176c.507,1.0129,1.2404,2.1016,2.2035,3.2662.962,1.1645,2.2533,2.1593,3.8739,2.981,1.6206.8228,3.634,1.2347,6.0389,1.2347,3.368,0,6.375-.8545,9.021-2.5634,2.646-1.7089,4.7295-4.1976,6.2482-7.4637s2.2793-7.2294,2.2793-11.8887c0-4.7091-.7786-8.6905-2.3359-11.9442-1.5573-3.2537-3.6532-5.7163-6.2867-7.3879ZM539.9008,51.8929c-.7594,2.0892-1.8866,3.7358-3.3805,4.9377-1.4939,1.203-3.342,1.804-5.5454,1.804-2.1525,0-3.9814-.576-5.4877-1.7281-1.5075-1.1521-2.6471-2.7659-3.4189-4.8426-.773-2.0756-1.1589-4.4941-1.1589-7.2543s.3859-5.1595,1.1589-7.1978c.7718-2.0382,1.9047-3.6272,3.3997-4.7668,1.4939-1.1396,3.3295-1.7089,5.507-1.7089,2.2284,0,4.0889.5885,5.5839,1.7666,1.4939,1.177,2.6143,2.7976,3.3612,4.8608.7458,2.0643,1.1204,4.4126,1.1204,7.0461s-.3803,4.9943-1.1396,7.0835Z"/>
    <path class="cls-13" d="M589.9445,28.1358c-1.8108-1.7474-3.8875-3.0387-6.229-3.875-2.3427-.8352-4.8053-1.2528-7.3879-1.2528-4.0516,0-7.5769.9303-10.5782,2.792-3.0002,1.8606-5.3168,4.4375-6.9499,7.7285-1.6342,3.2922-2.4502,7.1287-2.4502,11.5085,0,4.4318.8296,8.2808,2.4875,11.547s4.0267,5.7989,7.1027,7.5961c3.0772,1.7983,6.7541,2.6969,11.0343,2.6969,3.1643,0,5.9812-.4753,8.4506-1.4248,2.4683-.9495,4.5258-2.2782,6.1724-3.9882,1.6455-1.7089,2.8101-3.703,3.4936-5.9812l-9.0775-1.8617c-.4312,1.1906-1.0763,2.1967-1.9364,3.0194-.8612.8239-1.8809,1.4441-3.0579,1.8617-1.1781.4176-2.4875.6258-3.9316.6258-2.1774,0-4.0889-.4674-5.7344-1.4045-1.6467-.9371-2.9255-2.3302-3.8365-4.1783-.8182-1.6578-1.2479-3.6715-1.332-6.0015h29.5526v-3.1145c0-3.7222-.5127-6.9318-1.538-9.6276-1.0265-2.6969-2.4445-4.9196-4.2541-6.6658ZM570.8206,32.2949c1.5188-1.0265,3.3669-1.5391,5.5454-1.5391,2.1774,0,3.9939.507,5.4504,1.5199,1.4554,1.0129,2.5498,2.4242,3.2854,4.2349.5226,1.2903.8508,2.7317,1.0013,4.3107h-19.8916c.1321-1.596.503-3.0745,1.1336-4.425.7979-1.7089,1.9556-3.076,3.4755-4.1014Z"/>
    <path class="cls-14" d="M623.1605,22.9695c-2.4309,0-4.5948.6655-6.495,1.9941-1.899,1.3298-3.2277,3.2231-3.9871,5.679h-.4561v-7.1027h-9.5721v42.4634h9.8754v-24.9918c0-1.7983.4119-3.3861,1.2347-4.7668.8228-1.3796,1.9624-2.4626,3.4189-3.248,1.4554-.7843,3.0953-1.177,4.9185-1.177.8861,0,1.7847.0509,2.6969.1517.911.1019,1.5697.2162,1.9749.3418v-9.0775c-.4821-.0758-1.0638-.1381-1.7474-.1901-.6836-.0498-1.3049-.0758-1.8617-.0758Z"/>
    <path class="cls-15" d="M650.8323,58.3494c-.7469.1143-1.349.1709-1.804.1709-1.495,0-2.5713-.3599-3.2288-1.0819-.6587-.722-.988-1.8549-.988-3.3997v-22.751h8.2039v-7.7478h-8.2039v-10.104h-9.8754v10.104h-6.0389v7.7478h6.0389v23.5874c0,3.7471,1.0887,6.6342,3.2673,8.6599,2.1774,2.0258,5.3044,3.0375,9.3809,3.0375,1.0378,0,2.1276-.069,3.2673-.2082,1.1385-.1392,2.2533-.3735,3.342-.7028l-1.5573-7.6346c-.4561.1019-1.0582.2094-1.804.3225Z"/>
    <path class="cls-16" d="M689.5553,23.5399l-8.0137,23.0928c-.9122,2.7093-1.71,5.4255-2.3936,8.1473-.2471.984-.4943,1.9842-.7414,2.9832-.2264-.9934-.454-1.988-.6642-2.9651-.5828-2.7082-1.3286-5.4311-2.2408-8.1654l-7.7478-23.0928h-10.559l16.0286,42.615-.6077,2.6969c-.3293,1.6206-.8873,2.8542-1.6716,3.703-.7854.8488-1.7598,1.3547-2.9244,1.5199-1.1657.1641-2.4943.0566-3.9882-.3237l-1.1781-.3033-2.3166,7.7104c.6587.2784,1.5765.5183,2.7535.722,1.1781.2014,2.4626.3033,3.8558.3033,2.5566,0,4.7725-.4176,6.6466-1.2539,1.8741-.8352,3.4563-2.0575,4.7476-3.6645,1.2913-1.6082,2.3676-3.5389,3.2288-5.7922l18.2309-47.933h-10.4447Z"/>
  </g>
</svg>